<?xml version="1.0" standalone="no"?>
<!DOCTYPE svg PUBLIC "-//W3C//DTD SVG 20010904//EN"
 "http://www.w3.org/TR/2001/REC-SVG-20010904/DTD/svg10.dtd">
<svg version="1.0" xmlns="http://www.w3.org/2000/svg"
 width="1120.000000pt" height="1120.000000pt" viewBox="0 0 1120.000000 1120.000000"
 preserveAspectRatio="xMidYMid meet">
<metadata>
Created by potrace 1.14, written by Peter Selinger 2001-2017
</metadata>
<g transform="translate(0.000000,1120.000000) scale(0.100000,-0.100000)"
fill="#000000" stroke="none">
<path d="M4200 11025 l0 -175 -525 0 -525 0 0 -175 0 -175 -350 0 -350 0 0
-175 0 -175 -175 0 -175 0 0 -175 0 -175 -175 0 -175 0 0 -175 0 -175 -175 0
-175 0 0 -175 0 -175 -175 0 -175 0 0 -175 0 -175 -175 0 -175 0 0 -350 0
-350 -175 0 -175 0 0 -525 0 -525 -175 0 -175 0 0 -1400 0 -1400 175 0 175 0
0 -525 0 -525 175 0 175 0 0 -350 0 -350 175 0 175 0 0 -175 0 -175 175 0 175
0 0 -175 0 -175 175 0 175 0 0 -175 0 -175 175 0 175 0 0 -175 0 -175 175 0
175 0 0 -175 0 -175 350 0 350 0 0 -175 0 -175 525 0 525 0 0 -175 0 -175
1400 0 1400 0 0 175 0 175 525 0 525 0 0 175 0 175 350 0 350 0 0 175 0 175
175 0 175 0 0 175 0 175 175 0 175 0 0 175 0 175 175 0 175 0 0 175 0 175 175
0 175 0 0 175 0 175 175 0 175 0 0 350 0 350 175 0 175 0 0 525 0 525 175 0
175 0 0 1400 0 1400 -175 0 -175 0 0 525 0 525 -175 0 -175 0 0 350 0 350
-175 0 -175 0 0 175 0 175 -175 0 -175 0 0 175 0 175 -175 0 -175 0 0 175 0
175 -175 0 -175 0 0 175 0 175 -175 0 -175 0 0 175 0 175 -350 0 -350 0 0 175
0 175 -525 0 -525 0 0 175 0 175 -1400 0 -1400 0 0 -175z m4200 -2800 l0 -175
175 0 175 0 0 -525 0 -525 175 0 175 0 0 -1400 0 -1400 -175 0 -175 0 0 -350
0 -350 -175 0 -175 0 0 -175 0 -175 -175 0 -175 0 0 -175 0 -175 -350 0 -350
0 0 -175 0 -175 -525 0 -525 0 0 175 0 175 -350 0 -350 0 0 175 0 175 -175 0
-175 0 0 -175 0 -175 -175 0 -175 0 0 -175 0 -175 -525 0 -525 0 0 175 0 175
-350 0 -350 0 0 175 0 175 -175 0 -175 0 0 175 0 175 -175 0 -175 0 0 350 0
350 -175 0 -175 0 0 875 0 875 175 0 175 0 0 -350 0 -350 175 0 175 0 0 -525
0 -525 175 0 175 0 0 -175 0 -175 175 0 175 0 0 -175 0 -175 175 0 175 0 0
-175 0 -175 525 0 525 0 0 175 0 175 175 0 175 0 0 175 0 175 -175 0 -175 0 0
175 0 175 -175 0 -175 0 0 1225 0 1225 175 0 175 0 0 175 0 175 175 0 175 0 0
175 0 175 350 0 350 0 0 -175 0 -175 175 0 175 0 0 -175 0 -175 175 0 175 0 0
-1050 0 -1050 -175 0 -175 0 0 -350 0 -350 -175 0 -175 0 0 -175 0 -175 175 0
175 0 0 -175 0 -175 525 0 525 0 0 175 0 175 175 0 175 0 0 175 0 175 175 0
175 0 0 350 0 350 175 0 175 0 0 350 0 350 175 0 175 0 0 525 0 525 -175 0
-175 0 0 700 0 700 -175 0 -175 0 0 175 0 175 -175 0 -175 0 0 175 0 175 350
0 350 0 0 -175z"/>
<path d="M5250 5250 l0 -1050 175 0 175 0 0 -175 0 -175 175 0 175 0 0 1225 0
1225 -350 0 -350 0 0 -1050z"/>
</g>
</svg>
