<svg xmlns="http://www.w3.org/2000/svg" viewBox="0 -0.5 32 32" shape-rendering="crispEdges">
<metadata>Made with Pixels to Svg https://codepen.io/shshaw/pen/XbxvNj</metadata>
<path stroke="#618bff" d="M12 0h1M14 0h1M17 0h1M20 1h1M22 1h1M13 2h1M16 2h1M24 2h1M9 3h1M14 3h1M18 3h1M23 3h1M7 4h2M14 4h1M17 4h1M19 4h1M26 4h1M9 5h1M15 5h1M22 5h1M3 6h1M5 6h1M14 6h1M22 6h1M27 6h1M2 7h1M10 7h1M16 7h1M19 7h1M23 7h1M25 7h1M6 8h1M8 8h1M14 8h1M18 8h1M26 8h1M21 9h1M25 9h1M29 9h1M3 10h2M10 10h1M16 10h1M21 10h1M26 10h1M1 11h1M8 11h2M18 11h2M28 11h2M11 12h1M13 12h1M20 12h1M22 12h1M3 13h1M19 13h1M27 13h2M31 13h1M2 14h2M6 14h1M8 14h3M15 14h1M21 14h1M0 15h1M4 15h1M24 15h1M2 16h1M8 16h1M10 16h2M20 16h1M26 16h1M28 16h1M4 17h1M15 17h1M23 17h1M2 18h1M21 18h1M23 18h1M28 18h2M31 18h1M10 19h1M12 19h1M27 19h1M1 20h1M4 20h2M9 20h1M12 20h1M16 20h1M20 20h1M25 20h1M1 21h1M11 21h1M17 21h1M21 21h1M27 21h1M2 22h1M6 22h1M12 22h1M18 22h1M20 22h1M3 23h1M15 23h1M23 23h1M5 24h1M16 24h1M22 24h1M27 24h1M29 24h1M3 25h1M7 25h1M9 25h1M15 25h1M25 25h1M8 26h1M13 26h2M16 26h1M19 26h1M23 26h2M5 27h1M8 27h1M10 27h1M26 27h1M8 28h1M13 28h1M18 28h1M21 28h1M25 28h1M11 29h1M15 29h1M20 29h1M23 29h1M12 30h1M14 30h1M16 30h1M18 30h1M19 31h1" />
<path stroke="#ff5050" d="M13 0h1M18 0h1M9 1h1M15 1h1M11 2h1M18 2h2M22 2h1M8 3h1M15 3h1M22 3h1M10 4h1M7 5h1M10 5h1M12 5h1M26 5h1M16 6h3M23 6h2M4 7h1M7 7h1M11 7h1M14 7h1M12 8h1M27 8h1M5 9h1M10 9h1M13 9h1M20 9h1M28 9h1M1 10h1M5 10h1M13 10h1M2 11h1M26 11h1M4 12h1M21 12h1M30 12h1M1 13h1M7 13h1M10 13h1M0 14h1M11 14h1M28 14h1M15 15h1M31 15h1M0 16h1M4 16h1M7 16h1M23 16h1M27 16h1M10 17h2M31 17h1M9 18h1M16 18h1M19 18h2M0 19h2M16 19h1M29 19h1M3 20h1M6 20h1M10 20h1M13 20h1M18 20h1M22 20h1M28 20h1M2 21h1M4 21h1M3 22h1M13 22h1M26 23h1M28 23h1M4 24h1M7 24h2M11 25h1M18 25h1M9 26h1M22 26h1M9 27h1M11 27h1M13 27h1M16 27h1M19 27h1M6 28h1M19 28h1M9 30h1M21 30h1" />
<path stroke="#ffe450" d="M15 0h1M19 1h1M21 1h1M9 2h1M11 3h1M25 3h1M21 4h2M25 4h1M5 5h2M17 5h1M20 5h1M26 6h1M28 6h1M5 7h1M9 7h1M22 7h1M13 8h1M16 8h1M19 8h1M21 8h1M24 8h1M29 8h1M2 9h1M6 9h1M26 9h1M11 10h1M15 10h1M22 10h1M3 11h1M7 11h1M13 11h1M27 11h1M0 12h1M10 12h1M5 13h1M22 13h1M30 13h1M5 14h1M19 14h2M23 14h1M27 14h1M11 15h1M16 15h1M20 15h1M22 15h1M26 15h1M3 16h1M9 16h1M15 16h1M29 16h1M0 17h1M16 17h1M19 17h1M21 17h1M12 18h1M27 18h1M5 19h1M21 19h1M30 19h1M19 20h1M19 22h1M25 22h1M28 22h1M2 23h1M4 23h1M6 23h1M3 24h1M9 24h1M23 24h1M25 24h1M19 25h1M21 25h1M26 25h2M5 26h2M11 26h1M15 27h1M20 28h1M24 28h1M8 29h1M12 29h1M17 29h1M21 29h1M10 30h1M15 30h1M13 31h1M17 31h1" />
<path stroke="#ff9850" d="M16 0h1M13 1h1M10 2h1M14 2h1M17 2h1M6 3h1M12 3h2M19 3h1M5 4h1M9 4h1M8 5h1M16 5h1M19 5h1M23 5h1M27 5h1M8 6h2M12 6h1M15 6h1M19 6h1M8 7h1M20 7h1M29 7h1M1 9h1M18 9h1M6 10h1M8 10h2M12 10h1M20 10h1M23 10h1M27 10h1M5 11h1M14 11h1M17 11h1M25 11h1M30 11h1M12 12h1M18 12h1M28 12h1M31 12h1M2 13h1M11 13h1M23 13h1M26 13h1M29 13h1M16 14h1M22 14h1M26 14h1M30 14h1M1 15h1M8 15h1M12 15h1M23 15h1M28 15h1M5 16h1M16 16h1M19 16h1M21 16h1M24 16h1M30 16h1M3 17h1M8 17h1M12 17h1M11 18h1M26 18h1M30 18h1M3 19h1M8 19h1M18 19h1M2 20h1M10 21h1M14 21h1M19 21h1M25 21h1M29 21h2M24 22h1M30 22h1M25 23h1M2 24h1M6 24h1M10 24h1M14 24h1M17 24h1M24 24h1M28 24h1M6 25h1M16 25h1M7 26h1M10 26h1M18 26h1M6 27h1M12 27h1M14 27h1M16 28h1M7 29h1M18 29h1M22 29h1M24 29h1M11 30h1M14 31h1M18 31h1" />
<path stroke="#50d65f" d="M19 0h1M10 1h1M12 1h1M17 1h1M7 2h1M21 2h1M7 3h1M17 3h1M20 3h1M6 4h1M11 4h1M13 4h1M15 4h1M23 4h1M14 5h1M18 5h1M24 5h1M7 6h1M10 6h1M13 6h1M20 6h2M12 7h1M18 7h1M27 7h1M2 8h3M9 8h1M4 9h1M7 9h3M11 9h1M14 9h2M17 9h1M27 9h1M17 10h1M19 10h1M25 10h1M28 10h1M30 10h1M6 11h1M10 11h2M21 11h1M23 11h1M2 12h1M6 12h1M8 12h1M19 12h1M23 12h1M29 12h1M4 13h1M8 13h2M12 13h1M21 13h1M1 14h1M7 14h1M12 14h1M29 14h1M5 15h1M9 15h1M19 15h1M29 15h2M1 16h1M12 16h1M2 17h1M5 17h1M9 17h1M22 17h1M26 17h1M1 18h1M4 18h1M8 18h1M10 18h1M22 18h1M9 19h1M15 19h1M19 19h1M28 19h1M31 19h1M11 20h1M27 20h1M5 21h2M13 21h1M20 21h1M26 21h1M28 21h1M7 22h1M11 22h1M8 23h1M24 23h1M15 24h1M26 24h1M5 25h1M13 25h1M17 25h1M20 25h1M22 25h2M28 25h1M12 26h1M17 26h1M26 26h1M20 27h1M22 27h2M25 27h1M7 28h1M10 28h1M12 28h1M14 28h1M14 29h1M16 29h1M22 30h1M15 31h1" />
<path stroke="#ca50ff" d="M11 1h1M16 1h1M18 1h1M8 2h1M12 2h1M15 2h1M20 2h1M10 3h1M16 4h1M24 4h1M11 5h1M13 5h1M21 5h1M25 5h1M4 6h1M6 6h1M11 6h1M25 6h1M6 7h1M13 7h1M15 7h1M17 7h1M26 7h1M5 8h1M7 8h1M10 8h2M17 8h1M20 8h1M28 8h1M3 9h1M12 9h1M16 9h1M19 9h1M22 9h1M30 9h1M2 10h1M7 10h1M14 10h1M4 11h1M12 11h1M20 11h1M1 12h1M3 12h1M7 12h1M9 12h1M6 13h1M24 14h1M3 15h1M7 15h1M10 15h1M27 15h1M22 16h1M31 16h1M1 17h1M27 17h1M29 17h1M5 18h1M4 19h1M11 19h1M20 19h1M26 19h1M21 20h1M30 20h1M12 21h1M1 22h1M4 22h1M27 22h1M5 23h1M27 23h1M29 23h1M21 24h1M8 25h1M12 25h1M4 26h1M15 26h1M21 27h1M24 27h1M9 28h1M11 28h1M15 28h1M17 28h1M22 28h1M10 29h1M13 29h1M19 29h1M17 30h1M20 30h1" />
<path stroke="#ff50e6" d="M14 1h1M23 2h1M16 3h1M21 3h1M24 3h1M12 4h1M18 4h1M20 4h1M4 5h1M3 7h1M21 7h1M24 7h1M28 7h1M15 8h1M25 8h1M18 10h1M29 10h1M22 11h1M5 12h1M26 12h2M0 13h1M20 13h1M4 14h1M31 14h1M2 15h1M21 15h1M20 17h1M28 17h1M30 17h1M0 18h1M3 18h1M15 18h1M2 19h1M22 19h1M26 20h1M3 21h1M18 21h1M5 22h1M26 22h1M29 22h1M7 23h1M4 25h1M10 25h1M14 25h1M24 25h1M20 26h2M25 26h1M27 26h1M7 27h1M17 27h2M23 28h1M9 29h1M13 30h1M19 30h1M12 31h1M16 31h1" />
<path stroke="#ffd800" d="M29 20h1" />
</svg>